<?xml version="1.0" encoding="UTF-8" standalone="no"?>
<!-- Created with Inkscape (http://www.inkscape.org/) -->

<svg
   width="902.7229"
   height="519.44141"
   viewBox="0 0 238.84544 137.43555"
   version="1.1"
   id="svg5"
   inkscape:version="1.2.1 (9c6d41e410, 2022-07-14)"
   sodipodi:docname="logo.svg"
   inkscape:export-filename="logoSquare.png"
   inkscape:export-xdpi="96"
   inkscape:export-ydpi="96"
   xml:space="preserve"
   xmlns:inkscape="http://www.inkscape.org/namespaces/inkscape"
   xmlns:sodipodi="http://sodipodi.sourceforge.net/DTD/sodipodi-0.dtd"
   xmlns="http://www.w3.org/2000/svg"
   xmlns:svg="http://www.w3.org/2000/svg"><sodipodi:namedview
     id="namedview7"
     pagecolor="#ffffff"
     bordercolor="#000000"
     borderopacity="0.25"
     inkscape:showpageshadow="2"
     inkscape:pageopacity="0.0"
     inkscape:pagecheckerboard="0"
     inkscape:deskcolor="#d1d1d1"
     inkscape:document-units="mm"
     showgrid="false"
     inkscape:zoom="0.914906"
     inkscape:cx="725.21111"
     inkscape:cy="166.68379"
     inkscape:window-width="2400"
     inkscape:window-height="1261"
     inkscape:window-x="3191"
     inkscape:window-y="909"
     inkscape:window-maximized="1"
     inkscape:current-layer="layer1" /><defs
     id="defs2" /><g
     inkscape:label="Layer 1"
     inkscape:groupmode="layer"
     id="layer1"
     transform="translate(-16.304936,-103.19971)"><text
       xml:space="preserve"
       style="font-size:59.9281px;line-height:1.25;font-family:Poppins;-inkscape-font-specification:Poppins;text-align:end;text-decoration-color:#000000;text-anchor:end;fill:#1a1a1a;stroke-width:95.2838;stroke-linecap:square;paint-order:stroke fill markers;stop-color:#000000"
       x="243.74788"
       y="174.53053"
       id="text233"><tspan
         sodipodi:role="line"
         id="tspan231"
         style="font-style:normal;font-variant:normal;font-weight:bold;font-stretch:normal;font-family:Poppins;-inkscape-font-specification:'Poppins Bold';fill:#1a1a1a;stroke-width:95.2838"
         x="243.74789"
         y="174.53053">Block</tspan></text><text
       xml:space="preserve"
       style="font-size:64.7081px;line-height:1.25;font-family:Poppins;-inkscape-font-specification:Poppins;text-align:end;text-decoration-color:#000000;text-anchor:end;fill:#4d4d4d;stroke-width:102.884;stroke-linecap:square;paint-order:stroke fill markers;stop-color:#000000"
       x="245.90337"
       y="229.90683"
       id="text237"><tspan
         sodipodi:role="line"
         id="tspan235"
         style="font-style:normal;font-variant:normal;font-weight:normal;font-stretch:normal;font-family:Domine;-inkscape-font-specification:Domine;fill:#4d4d4d;stroke-width:102.884"
         x="245.90337"
         y="229.90683">Press</tspan></text><path
       style="fill:#000000;stroke-width:0.503881"
       d="m 17.665637,236.10722 c -0.09622,-0.31587 0.006,-0.76907 0.228121,-1.00739 0.222143,-0.23832 0.338344,-0.673 0.258229,-0.96597 -0.08012,-0.29299 -0.474856,-0.0172 -0.877184,0.61284 -0.619049,0.96942 -0.763132,1.02987 -0.937242,0.39316 -0.11316,-0.41381 0.07764,-0.96046 0.423992,-1.21477 0.699241,-0.51341 0.696539,-0.33471 0.221392,-14.59952 l -0.339228,-10.18438 2.448474,-1.84339 c 3.048228,-2.2949 4.378935,-3.80242 6.529527,-7.39714 1.552485,-2.59495 1.780111,-2.78677 2.759596,-2.32546 0.587137,0.27654 2.991814,1.31559 5.343731,2.30901 l 4.276216,1.80622 -0.709303,2.3245 c -1.074746,3.52208 -1.411943,6.80679 -0.998993,9.73103 0.204949,1.45127 0.288744,3.0379 0.186212,3.52581 -0.102531,0.48792 -4.011057,4.34688 -8.685624,8.57548 -4.787056,4.33035 -8.816508,8.37532 -9.225677,9.2612 -0.399561,0.86507 -0.80557,1.31452 -0.902237,0.99878 z m 4.480942,-11.18144 c 2.40854,-5.6154 3.369474,-7.32058 4.263156,-7.56496 0.818142,-0.22373 1.145975,-0.68461 1.127054,-1.58447 -0.03454,-1.64217 -0.668103,-2.19772 -2.069434,-1.81451 -1.395694,0.38165 -2.082398,1.7757 -1.398287,2.83861 0.360673,0.56041 -0.480784,3.13507 -2.820637,8.63047 -1.83406,4.30749 -3.291748,7.98873 -3.239305,8.18051 0.139178,0.50896 0.687064,-0.64119 4.137453,-8.68565 z m 0.07785,9.77337 c -0.287929,-0.26839 33.349537,4.50703 73.536307,5.61774 36.842994,1.01829 88.951934,-0.40706 158.625304,-4.26427 16.23565,-0.89883 -231.561994,-0.79454 -232.161611,-1.35347 z m 10.686823,-35.89882 c -4.146318,-1.7667 -7.585806,-3.3842 -7.643303,-3.59446 -0.145764,-0.53305 3.332727,-8.74419 3.748305,-8.84802 0.186281,-0.0468 0.712685,0.0298 1.169664,0.16972 0.66138,0.20249 1.151419,-1.22996 2.402579,-7.0231 5.383493,-24.92701 22.715084,-61.57382 34.346614,-72.62426 3.548645,-3.37137 4.921426,-4.08294 6.740634,-3.49394 1.358669,0.43988 1.483716,0.66432 2.097831,3.76544 2.682602,13.54644 -13.271885,57.49044 -29.084225,80.10761 -2.471939,3.53574 -3.207797,4.96187 -2.732186,5.29509 0.35801,0.25083 0.563517,0.78409 0.45673,1.18502 -0.411499,1.54423 -3.330631,8.116 -3.639032,8.19249 -0.178777,0.0437 -3.71724,-1.36492 -7.863555,-3.13161 z m 34.000346,-86.27516 c 0.928139,-1.33388 1.250469,-2.02405 0.716321,-1.5337 -3.525441,3.23632 -12.178841,18.12617 -16.054179,27.62429 -0.254725,0.62434 2.712381,-4.44494 6.593576,-11.26508 3.881217,-6.82014 7.816138,-13.49162 8.744282,-14.82551 z"
       id="path469"
       sodipodi:nodetypes="ssssssscsssscssssssssssssssssssscscccsscssccccscccs" /></g></svg>
